<?xml version="1.0" encoding="UTF-8"?>
<svg id="Layer_2" data-name="Layer 2" xmlns="http://www.w3.org/2000/svg" viewBox="0 0 3719.64 2369.47">
  <defs>
    <style>
      .cls-1 {
        fill: #fdb517;
      }

      .cls-2 {
        fill: #272f6f;
      }
    </style>
  </defs>
  <g id="MEGT">
    <path class="cls-2" d="M1609.48,873h-235.93c-38.92,183.31-77.46,364.87-116.3,547.86h137.21c28.57-134.84,56.89-268.52,86.61-408.79,7.38,140.66,14.41,274.53,21.54,410.37,46.09,0,89.58.47,133.04-.59,5.44-.13,12.8-7.22,15.68-12.9,28.38-56.02,56-112.42,83.84-168.72,35.18-71.17,70.36-142.34,105.54-213.51,1.17.36,2.34.73,3.51,1.09-27.6,130.74-55.19,261.47-83.02,393.34h141.93c38.6-182.72,76.97-364.37,115.21-545.4-5.08-2.28-6.76-3.69-8.45-3.7-72.21-.36-144.43-.89-216.64-.29-5.42.05-12.95,7.12-15.83,12.79-29.61,58.24-58.46,116.87-87.52,175.39-20.28,40.85-40.56,81.71-63.3,127.51-5.89-108.14-11.45-210.34-17.12-314.46Z"/>
    <path class="cls-2" d="M2490.85,1090.21h-243.41c7.31-35.85,13.9-68.15,20.97-102.84h258.45c8.18-39.23,15.8-75.81,23.85-114.45h-413.39c-38.95,183.52-77.55,365.42-116.36,548.3h419.92c7.71-37.26,15.17-73.28,23.54-113.74h-262.71c7.57-36.71,14.23-69,21.15-102.56h242.55c8.44-38.04,16.54-74.6,25.44-114.71Z"/>
    <path class="cls-2" d="M3367.83,988.1c-30.94,146.17-61.07,288.52-91.64,432.94h158.59c30.79-144.38,61.34-287.63,92.24-432.5h168.64c8.07-38.88,15.8-76.08,23.98-115.51h-492.51c-7.62,38.29-14.88,74.79-22.9,115.07h163.6Z"/>
    <path class="cls-2" d="M3144.64,1040.66h-153.55c-19.46-68.48-70.34-88.8-139.14-57.5-86.51,39.35-146.46,188.34-110.98,275.82,18.05,44.51,63.78,70.99,130.47,67.98,23.4-1.21,56.94-5.63,63.38-17.93,15.45-29.48,18.06-65.7,26.95-103.96h-114.34c8.22-39.6,15.73-75.78,23.43-112.88h262.91c-22.21,105.17-43.94,208.07-65.81,311.62-112.27,23.25-223.1,42.73-335.09,22.11-119.23-21.95-178.07-100.72-166.54-226.45,12.42-135.35,69.33-249.27,200.3-305.17,107.01-45.67,220.32-55.53,328.75.02,52.04,26.66,69.48,87.73,49.25,146.35Z"/>
  </g>
  <g id="_1" data-name="1">
    <path class="cls-1" d="M112.86,1791.85c29.99-27.64,78.11-26.65,106.94,2.19l451.01,453.24-110.84,102.09c-29.99,27.64-78.11,26.65-106.94-2.19L0,1895.96l112.86-104.11Z"/>
  </g>
  <g id="_2" data-name="2">
    <path class="cls-1" d="M243.02,1604.23c21.86-34.43,68.61-45.87,103.9-25.43l552.54,321.78-80.81,127.19c-21.86,34.43-68.61,45.87-103.9,25.43l-553.97-319.3,82.24-129.66Z"/>
  </g>
  <g id="_3" data-name="3">
    <path class="cls-1" d="M320.47,1389.41c12.25-38.9,54.48-62,93.84-51.33l616.78,168.59-45.32,143.71c-12.25,38.9-54.48,62-93.84,51.33l-617.52-165.84,46.06-146.47Z"/>
  </g>
  <g id="_4" data-name="4">
    <path class="cls-1" d="M338.15,1162.27c1.65-40.75,36.37-74.09,77.15-74.09l639.4,1.43-6.16,150.56c-1.65,40.75-36.37,74.09-77.15,74.09l-639.4,1.43,6.16-153.42Z"/>
  </g>
  <g id="_5" data-name="5">
    <path class="cls-1" d="M297.47,937.57c-8.9-39.8,16.06-80.96,55.46-91.46l618.19-163.32,32.84,147.07c8.9,39.8-16.06,80.96-55.46,91.46l-617.46,166.08-33.57-149.83Z"/>
  </g>
  <g id="_6" data-name="6">
    <path class="cls-1" d="M200.28,730.93c-18.85-36.16-5.34-82.36,30.03-102.66l555.27-317.04,69.61,133.65c18.85,36.16,5.34,82.36-30.03,102.66l-553.84,319.52-71.03-136.13Z"/>
  </g>
  <g id="_7" data-name="7">
    <path class="cls-1" d="M53.14,556.3c-27.53-30.09-26.37-78.21,2.58-106.93L510.59,0l101.69,111.21c27.53,30.09,26.37,78.21-2.58,106.93l-452.85,451.4-103.7-113.24Z"/>
  </g>
</svg>