<?xml version="1.0" encoding="UTF-8"?>
<svg id="Layer_2" data-name="Layer 2" xmlns="http://www.w3.org/2000/svg" viewBox="0 0 3719.64 2369.47">
  <defs>
    <style>
      .cls-1 {
        fill: #fdb517;
      }

      .cls-2 {
        fill: #fff;
      }
    </style>
  </defs>
  <g id="MEGT">
    <path class="cls-2" d="M1609.48,873c5.67,104.11,11.23,206.31,17.12,314.46,22.74-45.8,43.01-86.66,63.3-127.51,29.06-58.52,57.91-117.15,87.52-175.39,2.88-5.67,10.41-12.74,15.83-12.79,72.21-.6,144.43-.08,216.64.29,1.69,0,3.37,1.42,8.45,3.7-38.24,181.03-76.62,362.68-115.21,545.4h-141.93c27.83-131.87,55.43-262.6,83.02-393.34-1.17-.36-2.34-.73-3.51-1.09-35.18,71.17-70.36,142.34-105.54,213.51-27.83,56.3-55.46,112.7-83.84,168.72-2.88,5.68-10.24,12.77-15.68,12.9-43.46,1.05-86.95.59-133.04.59-7.13-135.84-14.15-269.71-21.54-410.37-29.72,140.27-58.04,273.94-86.61,408.79h-137.21c38.85-182.98,77.39-364.54,116.3-547.86h235.93Z"/>
    <path class="cls-2" d="M3144.64,1040.66h-153.55c-19.46-68.48-70.34-88.8-139.14-57.5-86.51,39.35-146.46,188.34-110.98,275.82,18.05,44.51,63.78,70.99,130.47,67.98,23.4-1.21,56.94-5.63,63.38-17.93,15.45-29.48,18.06-65.7,26.95-103.96h-114.34c8.22-39.6,15.73-75.78,23.43-112.88h262.91c-22.21,105.17-43.94,208.07-65.81,311.62-112.27,23.25-223.1,42.73-335.09,22.11-119.23-21.95-178.07-100.72-166.54-226.45,12.42-135.35,69.33-249.27,200.3-305.17,107.01-45.67,220.32-55.53,328.75.02,52.04,26.66,69.48,87.73,49.25,146.35Z"/>
    <path class="cls-2" d="M2490.85,1090.21c-8.89,40.11-17,76.67-25.44,114.71h-242.55c-6.92,33.57-13.58,65.85-21.15,102.56h262.71c-8.37,40.45-15.83,76.48-23.54,113.74h-419.92c38.81-182.88,77.41-364.78,116.36-548.3h413.39c-8.05,38.65-15.68,75.23-23.85,114.45h-258.45c-7.07,34.68-13.66,66.98-20.97,102.84h243.41Z"/>
    <path class="cls-2" d="M3367.83,988.1h-163.6c8.02-40.28,15.28-76.79,22.9-115.07h492.51c-8.19,39.43-15.91,76.62-23.98,115.51h-168.64c-30.9,144.87-61.45,288.12-92.24,432.5h-158.59c30.57-144.42,60.7-286.77,91.64-432.94Z"/>
  </g>
  <g id="_1" data-name="1">
    <path class="cls-1" d="M112.86,1791.85c29.99-27.64,78.11-26.65,106.94,2.19l451.01,453.24-110.84,102.09c-29.99,27.64-78.11,26.65-106.94-2.19L0,1895.96l112.86-104.11Z"/>
  </g>
  <g id="_2" data-name="2">
    <path class="cls-1" d="M243.02,1604.23c21.86-34.43,68.61-45.87,103.9-25.43l552.54,321.78-80.81,127.19c-21.86,34.43-68.61,45.87-103.9,25.43l-553.97-319.3,82.24-129.66Z"/>
  </g>
  <g id="_3" data-name="3">
    <path class="cls-1" d="M320.47,1389.41c12.25-38.9,54.48-62,93.84-51.33l616.78,168.59-45.32,143.71c-12.25,38.9-54.48,62-93.84,51.33l-617.52-165.84,46.06-146.47Z"/>
  </g>
  <g id="_4" data-name="4">
    <path class="cls-1" d="M338.15,1162.27c1.65-40.75,36.37-74.09,77.15-74.09l639.4,1.43-6.16,150.56c-1.65,40.75-36.37,74.09-77.15,74.09l-639.4,1.43,6.16-153.42Z"/>
  </g>
  <g id="_5" data-name="5">
    <path class="cls-1" d="M297.47,937.57c-8.9-39.8,16.06-80.96,55.46-91.46l618.19-163.32,32.84,147.07c8.9,39.8-16.06,80.96-55.46,91.46l-617.46,166.08-33.57-149.83Z"/>
  </g>
  <g id="_6" data-name="6">
    <path class="cls-1" d="M200.28,730.93c-18.85-36.16-5.34-82.36,30.03-102.66l555.27-317.04,69.61,133.65c18.85,36.16,5.34,82.36-30.03,102.66l-553.84,319.52-71.03-136.13Z"/>
  </g>
  <g id="_7" data-name="7">
    <path class="cls-1" d="M53.14,556.3c-27.53-30.09-26.37-78.21,2.58-106.93L510.59,0l101.69,111.21c27.53,30.09,26.37,78.21-2.58,106.93l-452.85,451.4-103.7-113.24Z"/>
  </g>
</svg>